<mxfile host="app.diagrams.net" agent="Mozilla/5.0 (X11; Ubuntu; Linux x86_64; rv:137.0) Gecko/20100101 Firefox/137.0" version="27.1.6">
  <diagram name="Page-1" id="W8epZQ21CmaLPUGNPq8Y">
    <mxGraphModel dx="1236" dy="1823" grid="1" gridSize="10" guides="1" tooltips="1" connect="1" arrows="1" fold="1" page="1" pageScale="1" pageWidth="850" pageHeight="1100" math="0" shadow="0">
      <root>
        <mxCell id="0" />
        <mxCell id="1" parent="0" />
        <mxCell id="s7vytsFGn_9YH380_VkC-73" value="a" style="ellipse;whiteSpace=wrap;html=1;fontSize=16;fillColor=#f8cecc;strokeColor=#b85450;" vertex="1" parent="1">
          <mxGeometry x="130" y="-90" width="60" height="60" as="geometry" />
        </mxCell>
        <mxCell id="s7vytsFGn_9YH380_VkC-75" value="D" style="ellipse;whiteSpace=wrap;html=1;fontSize=16;fillColor=#f5f5f5;fontColor=#333333;strokeColor=#666666;" vertex="1" parent="1">
          <mxGeometry x="170" y="-380" width="60" height="60" as="geometry" />
        </mxCell>
        <mxCell id="s7vytsFGn_9YH380_VkC-76" value="" style="edgeStyle=none;curved=1;rounded=0;orthogonalLoop=1;jettySize=auto;html=1;fontSize=16;startSize=8;endSize=8;endArrow=none;endFill=0;entryX=0.5;entryY=0;entryDx=0;entryDy=0;" edge="1" parent="1" source="s7vytsFGn_9YH380_VkC-75" target="s7vytsFGn_9YH380_VkC-152">
          <mxGeometry relative="1" as="geometry">
            <mxPoint x="192" y="-183" as="sourcePoint" />
            <mxPoint x="136.97390550178648" y="-244.23770449095196" as="targetPoint" />
          </mxGeometry>
        </mxCell>
        <mxCell id="s7vytsFGn_9YH380_VkC-79" value="T" style="ellipse;whiteSpace=wrap;html=1;fontSize=16;fillColor=#f5f5f5;fontColor=#333333;strokeColor=#666666;" vertex="1" parent="1">
          <mxGeometry x="290" y="-251" width="60" height="60" as="geometry" />
        </mxCell>
        <mxCell id="s7vytsFGn_9YH380_VkC-80" value="" style="edgeStyle=none;curved=1;rounded=0;orthogonalLoop=1;jettySize=auto;html=1;fontSize=16;startSize=8;endSize=8;endArrow=none;endFill=0;entryX=0.5;entryY=0;entryDx=0;entryDy=0;" edge="1" parent="1" source="s7vytsFGn_9YH380_VkC-75" target="s7vytsFGn_9YH380_VkC-79">
          <mxGeometry relative="1" as="geometry">
            <mxPoint x="194" y="-294" as="sourcePoint" />
            <mxPoint x="165" y="-239" as="targetPoint" />
          </mxGeometry>
        </mxCell>
        <mxCell id="s7vytsFGn_9YH380_VkC-87" value="c" style="ellipse;whiteSpace=wrap;html=1;fontSize=16;fillColor=#f8cecc;strokeColor=#b85450;" vertex="1" parent="1">
          <mxGeometry x="290" y="-90" width="60" height="60" as="geometry" />
        </mxCell>
        <mxCell id="s7vytsFGn_9YH380_VkC-88" value="d" style="ellipse;whiteSpace=wrap;html=1;fontSize=16;fillColor=#f8cecc;strokeColor=#b85450;" vertex="1" parent="1">
          <mxGeometry x="450" y="-90" width="60" height="60" as="geometry" />
        </mxCell>
        <mxCell id="s7vytsFGn_9YH380_VkC-89" value="" style="edgeStyle=none;curved=1;rounded=0;orthogonalLoop=1;jettySize=auto;html=1;fontSize=16;startSize=8;endSize=8;endArrow=none;endFill=0;" edge="1" parent="1" source="s7vytsFGn_9YH380_VkC-79" target="s7vytsFGn_9YH380_VkC-87">
          <mxGeometry relative="1" as="geometry">
            <mxPoint x="117" y="-183" as="sourcePoint" />
            <mxPoint x="91" y="-123" as="targetPoint" />
          </mxGeometry>
        </mxCell>
        <mxCell id="s7vytsFGn_9YH380_VkC-90" value="" style="edgeStyle=none;curved=1;rounded=0;orthogonalLoop=1;jettySize=auto;html=1;fontSize=16;startSize=8;endSize=8;endArrow=none;endFill=0;" edge="1" parent="1" source="s7vytsFGn_9YH380_VkC-79" target="s7vytsFGn_9YH380_VkC-88">
          <mxGeometry relative="1" as="geometry">
            <mxPoint x="294" y="-182" as="sourcePoint" />
            <mxPoint x="276" y="-124" as="targetPoint" />
          </mxGeometry>
        </mxCell>
        <mxCell id="s7vytsFGn_9YH380_VkC-152" value="a" style="ellipse;whiteSpace=wrap;html=1;fontSize=16;fillColor=#f8cecc;strokeColor=#b85450;" vertex="1" parent="1">
          <mxGeometry x="40" y="-251" width="60" height="60" as="geometry" />
        </mxCell>
        <mxCell id="s7vytsFGn_9YH380_VkC-153" value="" style="edgeStyle=none;curved=1;rounded=0;orthogonalLoop=1;jettySize=auto;html=1;fontSize=16;startSize=8;endSize=8;endArrow=none;endFill=0;exitX=0;exitY=1;exitDx=0;exitDy=0;entryX=0.5;entryY=0;entryDx=0;entryDy=0;" edge="1" parent="1" source="s7vytsFGn_9YH380_VkC-79" target="s7vytsFGn_9YH380_VkC-73">
          <mxGeometry relative="1" as="geometry">
            <mxPoint x="302" y="-181" as="sourcePoint" />
            <mxPoint x="302" y="-125" as="targetPoint" />
          </mxGeometry>
        </mxCell>
        <mxCell id="s7vytsFGn_9YH380_VkC-155" value="" style="endArrow=classic;html=1;rounded=0;exitX=0.5;exitY=0;exitDx=0;exitDy=0;" edge="1" parent="1" source="s7vytsFGn_9YH380_VkC-75">
          <mxGeometry width="50" height="50" relative="1" as="geometry">
            <mxPoint x="190" y="-390" as="sourcePoint" />
            <mxPoint x="200" y="-430" as="targetPoint" />
          </mxGeometry>
        </mxCell>
        <mxCell id="s7vytsFGn_9YH380_VkC-157" value="" style="endArrow=classic;html=1;rounded=0;entryX=0.5;entryY=1;entryDx=0;entryDy=0;" edge="1" parent="1">
          <mxGeometry width="50" height="50" relative="1" as="geometry">
            <mxPoint x="319.5" y="15" as="sourcePoint" />
            <mxPoint x="319.5" y="-30" as="targetPoint" />
          </mxGeometry>
        </mxCell>
        <mxCell id="s7vytsFGn_9YH380_VkC-158" value="" style="endArrow=classic;html=1;rounded=0;entryX=0.5;entryY=1;entryDx=0;entryDy=0;" edge="1" parent="1">
          <mxGeometry width="50" height="50" relative="1" as="geometry">
            <mxPoint x="479.5" y="15" as="sourcePoint" />
            <mxPoint x="479.5" y="-30" as="targetPoint" />
          </mxGeometry>
        </mxCell>
        <mxCell id="s7vytsFGn_9YH380_VkC-159" value="" style="endArrow=classic;html=1;rounded=0;entryX=0.5;entryY=1;entryDx=0;entryDy=0;" edge="1" parent="1" target="s7vytsFGn_9YH380_VkC-152">
          <mxGeometry width="50" height="50" relative="1" as="geometry">
            <mxPoint x="70" y="-140" as="sourcePoint" />
            <mxPoint x="119.5" y="-180" as="targetPoint" />
          </mxGeometry>
        </mxCell>
        <mxCell id="s7vytsFGn_9YH380_VkC-160" value="&lt;font style=&quot;font-size: 16px;&quot;&gt;Output&lt;/font&gt;" style="text;html=1;align=center;verticalAlign=middle;whiteSpace=wrap;rounded=0;" vertex="1" parent="1">
          <mxGeometry x="170" y="-470" width="60" height="30" as="geometry" />
        </mxCell>
        <mxCell id="s7vytsFGn_9YH380_VkC-161" value="Input" style="text;html=1;align=center;verticalAlign=middle;whiteSpace=wrap;rounded=0;fontSize=16;" vertex="1" parent="1">
          <mxGeometry x="40" y="-135" width="60" height="30" as="geometry" />
        </mxCell>
        <mxCell id="s7vytsFGn_9YH380_VkC-162" value="Input" style="text;html=1;align=center;verticalAlign=middle;whiteSpace=wrap;rounded=0;fontSize=16;" vertex="1" parent="1">
          <mxGeometry x="130" y="20" width="60" height="30" as="geometry" />
        </mxCell>
        <mxCell id="s7vytsFGn_9YH380_VkC-163" value="Input" style="text;html=1;align=center;verticalAlign=middle;whiteSpace=wrap;rounded=0;fontSize=16;" vertex="1" parent="1">
          <mxGeometry x="450" y="20" width="60" height="30" as="geometry" />
        </mxCell>
        <mxCell id="s7vytsFGn_9YH380_VkC-164" value="Input" style="text;html=1;align=center;verticalAlign=middle;whiteSpace=wrap;rounded=0;fontSize=16;" vertex="1" parent="1">
          <mxGeometry x="290" y="20" width="60" height="30" as="geometry" />
        </mxCell>
        <mxCell id="s7vytsFGn_9YH380_VkC-171" value="5 → 6.0" style="text;html=1;align=center;verticalAlign=middle;whiteSpace=wrap;rounded=0;fontSize=16;" vertex="1" parent="1">
          <mxGeometry x="170" y="-180" width="60" height="30" as="geometry" />
        </mxCell>
        <mxCell id="s7vytsFGn_9YH380_VkC-172" value="2 → 3.2" style="text;html=1;align=center;verticalAlign=middle;whiteSpace=wrap;rounded=0;fontSize=16;" vertex="1" parent="1">
          <mxGeometry x="240" y="-120" width="70" height="20" as="geometry" />
        </mxCell>
        <mxCell id="s7vytsFGn_9YH380_VkC-173" value="4 → -0.5" style="text;html=1;align=center;verticalAlign=middle;whiteSpace=wrap;rounded=0;fontSize=16;" vertex="1" parent="1">
          <mxGeometry x="400" y="-180" width="70" height="30" as="geometry" />
        </mxCell>
        <mxCell id="s7vytsFGn_9YH380_VkC-174" value="1 → 2.3" style="text;html=1;align=center;verticalAlign=middle;whiteSpace=wrap;rounded=0;fontSize=16;" vertex="1" parent="1">
          <mxGeometry x="50" y="-320" width="60" height="30" as="geometry" />
        </mxCell>
        <mxCell id="s7vytsFGn_9YH380_VkC-175" value="2 → 3.2" style="text;html=1;align=center;verticalAlign=middle;whiteSpace=wrap;rounded=0;fontSize=16;" vertex="1" parent="1">
          <mxGeometry x="280" y="-320" width="60" height="30" as="geometry" />
        </mxCell>
        <mxCell id="s7vytsFGn_9YH380_VkC-176" value="Bias" style="ellipse;whiteSpace=wrap;html=1;fontSize=16;fillColor=#fff2cc;strokeColor=#d6b656;" vertex="1" parent="1">
          <mxGeometry x="430" y="-380" width="60" height="60" as="geometry" />
        </mxCell>
        <mxCell id="s7vytsFGn_9YH380_VkC-177" value="Bias" style="ellipse;whiteSpace=wrap;html=1;fontSize=16;fillColor=#fff2cc;strokeColor=#d6b656;fillStyle=hatch;fontColor=#CCCCCC;" vertex="1" parent="1">
          <mxGeometry x="570" y="-251" width="60" height="60" as="geometry" />
        </mxCell>
        <mxCell id="s7vytsFGn_9YH380_VkC-178" value="" style="endArrow=classic;html=1;rounded=0;entryX=0.5;entryY=1;entryDx=0;entryDy=0;" edge="1" parent="1">
          <mxGeometry width="50" height="50" relative="1" as="geometry">
            <mxPoint x="159.5" y="15" as="sourcePoint" />
            <mxPoint x="159.5" y="-30" as="targetPoint" />
          </mxGeometry>
        </mxCell>
        <mxCell id="s7vytsFGn_9YH380_VkC-179" value="" style="endArrow=none;html=1;rounded=0;entryX=0;entryY=0.5;entryDx=0;entryDy=0;exitX=1;exitY=0.5;exitDx=0;exitDy=0;" edge="1" parent="1" source="s7vytsFGn_9YH380_VkC-75" target="s7vytsFGn_9YH380_VkC-176">
          <mxGeometry width="50" height="50" relative="1" as="geometry">
            <mxPoint x="270" y="-340" as="sourcePoint" />
            <mxPoint x="320" y="-390" as="targetPoint" />
          </mxGeometry>
        </mxCell>
        <mxCell id="s7vytsFGn_9YH380_VkC-181" value="" style="endArrow=none;dashed=1;html=1;rounded=0;entryX=0;entryY=0.5;entryDx=0;entryDy=0;exitX=1;exitY=0.5;exitDx=0;exitDy=0;dashPattern=8 8;fillColor=#f5f5f5;strokeColor=#666666;" edge="1" parent="1" source="s7vytsFGn_9YH380_VkC-79" target="s7vytsFGn_9YH380_VkC-177">
          <mxGeometry width="50" height="50" relative="1" as="geometry">
            <mxPoint x="460" y="-220" as="sourcePoint" />
            <mxPoint x="510" y="-270" as="targetPoint" />
          </mxGeometry>
        </mxCell>
        <mxCell id="s7vytsFGn_9YH380_VkC-182" value="0.4" style="text;html=1;align=center;verticalAlign=middle;whiteSpace=wrap;rounded=0;fontSize=16;" vertex="1" parent="1">
          <mxGeometry x="350" y="-380" width="60" height="30" as="geometry" />
        </mxCell>
        <mxCell id="s7vytsFGn_9YH380_VkC-183" value="2.3" style="text;html=1;align=center;verticalAlign=middle;whiteSpace=wrap;rounded=0;fontSize=16;fontColor=#CCCCCC;" vertex="1" parent="1">
          <mxGeometry x="510" y="-251" width="60" height="30" as="geometry" />
        </mxCell>
      </root>
    </mxGraphModel>
  </diagram>
</mxfile>
